<?xml version="1.0" encoding="UTF-8"?>
<!DOCTYPE svg PUBLIC "-//W3C//DTD SVG 1.1//EN" "http://www.w3.org/Graphics/SVG/1.1/DTD/svg11.dtd">
<!-- Creator: CorelDRAW 2020 -->
<svg xmlns="http://www.w3.org/2000/svg" xml:space="preserve" width="2480px" height="3508px" version="1.1" style="shape-rendering:geometricPrecision; text-rendering:geometricPrecision; image-rendering:optimizeQuality; fill-rule:evenodd; clip-rule:evenodd"
viewBox="0 0 2480 3507.43"
 xmlns:xlink="http://www.w3.org/1999/xlink"
 xmlns:xodm="http://www.corel.com/coreldraw/odm/2003">
 <defs>
  <style type="text/css">
   <![CDATA[
    .fil0 {fill:black}
    .fil3 {fill:#FFDD00}
    .fil4 {fill:white}
    .fil1 {fill:#FFDD00;fill-rule:nonzero}
    .fil2 {fill:white;fill-rule:nonzero}
   ]]>
  </style>
 </defs>
 <g id="Layer_x0020_1">
  <metadata id="CorelCorpID_0Corel-Layer"/>
  <rect class="fil0" x="113.84" y="1152.52" width="2331.41" height="1575.28"/>
  <g id="_956591816">
   <g>
    <path class="fil1" d="M713.57 2207.89l0 -110.77 33.71 0 0 110.77 -33.71 0zm160.81 0l-66.65 -83.21 0 83.21 -31.72 0 0 -110.77 53.67 0 66.73 83.03 0 -83.03 31.72 0 0 110.77 -53.75 0zm111.05 0l-37.17 0 61.75 -110.77 45.5 0 60.42 110.77 -37.09 0 -10.43 -20.1 -72.1 0 -10.88 20.1zm22.86 -43.02l48.33 0 -23.94 -46.5 -24.39 46.5zm230.73 -67.75c13.28,0 22.78,2.57 28.48,7.72 5.7,5.15 8.55,14.25 8.55,27.32 0,4.98 -0.28,9.24 -0.83,12.79 -0.55,3.54 -1.66,6.61 -3.32,9.21 -1.66,2.6 -3.6,4.54 -5.81,5.81 -2.22,1.28 -6.87,3.08 -13.95,5.4 7.75,1 13.45,2.96 17.1,5.9 3.66,2.93 5.48,8.05 5.48,15.36l0 21.26 -34.21 0 0 -10.63c0,-5.43 -0.47,-9.75 -1.41,-12.96 -0.94,-3.21 -5.34,-4.81 -13.2,-4.81l-56.3 0 0 28.4 -33.71 0 0 -110.77 103.13 0zm-14.12 55.46c7.64,0 12.4,-0.94 14.28,-2.82 1.89,-1.88 2.83,-6.09 2.83,-12.62 0,-3.65 -0.36,-6.37 -1.08,-8.14 -0.72,-1.77 -2.22,-2.99 -4.49,-3.65 -2.27,-0.67 -4.12,-1.05 -5.56,-1.16 -1.44,-0.11 -3.16,-0.17 -5.15,-0.17l-2.66 0 -53.47 0 0 28.56 50.98 0 4.32 0zm107.28 55.31l-37.17 0 61.75 -110.77 45.5 0 60.43 110.77 -37.09 0 -10.44 -20.1 -72.1 0 -10.88 20.1zm22.86 -43.02l48.33 0 -23.94 -46.5 -24.39 46.5z"/>
    <path class="fil2" d="M1552.56 2207.89l-37.17 0 61.75 -110.77 45.5 0 60.42 110.77 -37.09 0 -10.43 -20.1 -72.1 0 -10.88 20.1zm22.86 -43.02l48.33 0 -23.94 -46.5 -24.39 46.5zm269.92 -19.43l0.17 23.25c0,13.62 -2.36,23.72 -7.06,30.31 -4.71,6.59 -13.87,9.88 -27.49,9.88l-17.6 0.17 -20.1 -0.17 -17.43 -0.16c-12.73,0 -22.84,-0.86 -30.31,-2.58 -7.47,-1.71 -13.4,-5.51 -17.77,-11.37 -4.37,-5.87 -6.56,-14.84 -6.56,-26.91l-0.33 -13.95c0,-21.59 2.66,-36.53 7.97,-44.84 5.31,-8.3 17.83,-12.45 37.53,-12.45l25.24 -0.5 9.3 -0.17 22.59 0.5c14.61,0 25.21,2.52 31.8,7.56 6.59,5.04 9.88,14.75 9.88,29.14l0 2 -33.04 0c0,-2.66 -0.39,-4.93 -1.17,-6.81 -0.77,-1.88 -2.21,-3.21 -4.31,-3.99 -2.11,-0.77 -4.13,-1.24 -6.07,-1.41 -1.93,-0.17 -4.73,-0.25 -8.38,-0.25l-39.03 -0.16c-7.97,0 -13.01,1.93 -15.11,5.81 -2.1,3.87 -3.16,10.41 -3.16,19.6l0 10.29c0,7.64 1.06,13.31 3.16,17.02 2.1,3.71 5.09,5.82 8.97,6.31 3.87,0.5 6.86,0.81 8.96,0.92 2.11,0.11 4.77,0.16 7.97,0.16l30.06 0.17c5.65,0 10.11,-0.94 13.37,-2.82 3.27,-1.89 4.9,-5.43 4.9,-10.63l-0.16 -3.16 -42.68 0 0 -20.76 75.89 0z"/>
   </g>
   <path class="fil2" d="M1000.23 2268.04c-6.77,-6.68 -15.65,-10.02 -24.43,-10.02 -20.32,0 -34.54,13.64 -34.45,34.54 0,18.23 11.74,34.07 34.45,34.07 9.93,0 18.23,-3.82 25.19,-10.78l0 -25.01 -28.15 0 0 4.49 23.29 0 0 18.7c-5.73,5.25 -13.17,7.73 -20.33,7.73 -19.46,0 -29.48,-13.55 -29.48,-29.29 -0.1,-15.46 9.92,-29.78 29.48,-29.78 7.54,0 15.65,2.87 21.47,8.59l2.96 -3.24zm128.94 32.16c14.6,0 21.76,-9.56 21.66,-20.47 -0.09,-10.44 -7.44,-20.85 -21.94,-20.85 -9.83,0 -19.56,0 -29.39,0l0 66.89 5.15 0 0 -25.29 18.23 0 23.09 25.29 6.77 0 -23.57 -25.57zm-24.52 -36.55l24.24 0c11.07,0 16.41,8.13 16.31,15.98 -0.09,9.39 -5.24,15.99 -16.89,15.99l-23.66 0 0 -31.97zm172.93 -5.73c-22.52,0 -33.68,16.42 -33.68,34.36 0,17.65 11.26,34.64 33.68,34.64 22.43,0 33.59,-16.89 33.69,-34.45 0.09,-18.04 -11.17,-34.55 -33.69,-34.55zm0 4.77c19.18,0 28.72,14.22 28.72,29.68 0,15.08 -9.63,29.77 -28.72,29.77 -18.99,0 -28.53,-14.69 -28.62,-29.77 -0.1,-15.74 9.44,-29.68 28.62,-29.68zm177.42 -3.81l0 41.51c0,28.62 -41.03,28.72 -41.03,0l0 -41.51 -5.06 0 0 41.51c0,35.02 51.15,34.92 51.15,0l0 -41.51 -5.06 0zm133.81 4.77c22.23,0 22.23,34.35 0,34.35l-24.14 0 0 -34.35 24.14 0zm0 39.03c29.01,0 29.01,-43.8 0,-43.8 -9.73,0 -19.56,0 -29.3,0l0 66.89 5.16 0 0 -23.09 24.14 0z"/>
   <polygon class="fil3" points="1456.41,1766.48 1456.41,1766.47 1456.41,1766.47 "/>
   <g>
    <path class="fil3" d="M1456.41 1766.47l68.12 -221.5 -184.66 0c0,0 -50.53,-3.16 -76.64,34.74 -12.68,18.4 -85.31,118.1 -156.69,215.81 46.54,-16.25 94.18,-25.82 138.74,-31.13 -21.04,-13.66 -41.87,-29.23 -41.87,-29.23 0,0 108.3,-17.56 132.33,-19.12 24.03,-1.55 28.95,9.01 36.73,11.29 13.99,4.1 38.25,-3.24 56.72,5.09 23.49,10.59 27.14,34.05 27.22,34.05zm-158.83 -20.74l35.4 3.95c0,0 5.78,0.59 11.62,-0.65 5.85,-1.23 10.6,1.65 10.6,1.65 0,0 -5.47,-12.74 -19.13,-10.51 -13.66,2.23 -38.49,5.56 -38.49,5.56z"/>
    <path class="fil4" d="M1388.3 1987.98l68.07 -221.36c-5.32,2.5 -268.99,12.61 -421.81,221.36l353.74 0z"/>
   </g>
  </g>
 </g>
</svg>
